<svg xmlns="http://www.w3.org/2000/svg" xmlns:xlink="http://www.w3.org/1999/xlink" width="300" height="545.308" viewBox="0 0 300 545.308">
  <defs>
    <clipPath id="clip-Artboard_2">
      <rect width="300" height="545.308"/>
    </clipPath>
  </defs>
  <g id="Artboard_2" data-name="Artboard – 2" clip-path="url(#clip-Artboard_2)">
    <rect width="300" height="545.308" fill="#fff"/>
    <g id="Group_156" data-name="Group 156" transform="translate(7.507 10.646)">
      <g id="Group_154" data-name="Group 154" transform="translate(1.611 1.354)">
        <g id="Group_153" data-name="Group 153">
          <path id="Path_20" data-name="Path 20" d="M169.186,376.762c-3.461-2.41-4.13-6.023-4.159-9.807-.065-9.073-.043-18.147.014-27.213.007-1.288-.568-2.72.72-3.871a1.723,1.723,0,0,0,.122-1.705c-1.619-1.892-.82-4.087-.835-6.116q-.119-20.755-.007-41.511c.014-2.5-.338-4.965.727-7.534a6.047,6.047,0,0,0-.475-5.663c-.6-.835-.252-1.77-.266-2.648-.05-3.224-.022-6.447-.022-9.663-2.008-.806-4.2-1.015-6.087-2.209-.813.849-.345,1.979-.345,2.986q-.043,50.512-.05,101.017c0,1.432.173,2.806-.734,4.317-2.058,3.425-6.85,4.576-9.476,1.648a8.313,8.313,0,0,1-1.763-5.7c.022-5.073.007-10.146.007-15.225,0-7.534.13-15.067-.058-22.594-.086-3.634,1.979-7.167.878-10.656-1.137-3.6-.7-7.152-.77-10.728-.043-1.72-.518-3.519.784-5.217a3.85,3.85,0,0,0,.036-3.137c-1.864-4.886-.367-9.93-.871-14.866,1.835-3.281.216-6.548.065-9.843-.237-5.066-.065-10.146-.065-15.377a20.36,20.36,0,0,0-7.325-2.267V358.795l-3.188,3.195h-5.922c-1.633-2.576-2.95-5.253-2.95-8.455q.032-27.447.029-54.887a5.413,5.413,0,0,1,.684-3.432,4.728,4.728,0,0,0,.13-3.986c-1.417-2.936-.77-5.936-.791-8.886-.094-11.067-.036-22.14-.036-33.358-2.209-.842-4.67-1.094-6.7-2.432-1.158,1.2-.655,2.475-.655,3.6q-.054,50.048.029,100.1c0,2.353-.4,4.267-2.518,5.332s-4.353,1.72-6.613.058c-1.043-.77-2.612-3.087-1.914-3.806,1.662-1.7.2-3.123-.209-4.353a15.91,15.91,0,0,1-.806-5.188c.014-10.3.122-20.608-.058-30.9a22.061,22.061,0,0,1,2.022-8.879c1.374-3.4,1.367-3.691-1.957-5.433,0-5.483-.014-11.009.014-16.528.007-.863-.4-1.871.561-2.526a1.037,1.037,0,0,0,.324-1.238c-.417-1.547-1.238-2.993-.914-4.706.266-1.417,1.259-2.641.95-4.224-1.5-7.663-.806-15.42-.921-23.141-.022-1.684-.784-2.331-2.4-2.626a35.876,35.876,0,0,1-4.871-1.6V345.807l-3.36,3.36c-1.748-.288-3.634.252-5.771-.777a4.993,4.993,0,0,1-2.849-4c-.281-1.792-.82-3.878.561-5.7a2.751,2.751,0,0,0,.18-2.187c-1.2-3.763-1.511-7.49.029-11.247a1.2,1.2,0,0,0-.007-.907c-1.525-2.986-.748-5.872-.122-8.958.4-2.015.813-4.411-.684-6.577-.576-.827-.094-2.4-.094-3.619V236.933l-6.462-2.461V239.3c0,30.595-.043,61.2.079,91.792.014,2.454-1.259,4.591-.993,6.994.072.6-.446.748-.648,1.122-1.079,1.964-3.31,1.734-4.979,2.475-1.367.6-2.713-.748-3.864-1.583a23.988,23.988,0,0,1-2.461-2.418V230.349l-10.966-3.238V330.1c-.489.482-.82.806-1.137,1.137-1.144,1.187-2.511,2.389-4.137,2.159a6.5,6.5,0,0,1-4.663-2.95c-1.058-1.95-2.418-3.85-2.288-6.454.259-5.21.036-10.448.108-15.679.014-1.281-.41-2.6.712-3.878a3.417,3.417,0,0,0,.108-3.08c-1.468-2.749-.806-5.62-.813-8.419q-.108-26.983-.007-53.966c.007-2.655-.36-5.3.748-7.98a4.951,4.951,0,0,0-.461-4.792c-.532-.712-.309-2.008-.453-3.288l-10.757-3.152V323.674c-1.346.928-1.856,2.792-3.792,2.425-1.288-.245-2.418,1.1-3.922.108-.612-.4-1.9-.309-2.209-1.166-.389-1.079-1.461-1.842-1.331-3.144.554-5.605-1.317-11.045-1-16.686.353-6.131.022-12.3.115-18.442.029-1.885-.547-3.835.806-5.677a3.344,3.344,0,0,0,0-3.108c-1.41-1.993-.792-4.1-.806-6.138-.072-11.067-.108-22.14.007-33.207.036-3.878-.576-7.771.777-11.649.619-1.784.043-3.965.122-5.958.072-1.806-1.72-3.245-.792-5.116-1.475-.554-2.569-1.7-4.166-1.446-1.382.223-2.267-1.626-3.907-.835-.863.763-.353,1.907-.353,2.893q-.054,45.439-.05,90.871c0,1.317.338,2.655-.417,3.972-.885,1.533-1.489,3.454-3.511,3.6-2.475.187-5.26.633-7.167-1.475A8.251,8.251,0,0,1,1.7,307.808c.029-4.454.007-8.915.007-13.376,0-5.533-.072-11.067.036-16.6.05-2.346-.633-4.778.827-7.044a3.121,3.121,0,0,0,0-2.691c-1.5-2.727-.8-5.612-.82-8.411-.094-11.383.173-22.766-.122-34.135-.173-6.541.835-12.959,1.043-19.449.079-2.382,1.561-4.31,2.965-6.131,2.31-3,5.814-4.5,8.778-6.663,3.72-2.7,7.764-4.972,11.657-7.44.252-.158.568-.345.662-.6,1.432-3.8,5.3-4.835,8.095-7.066a26.3,26.3,0,0,1,3.555-2.554c2.231-1.238,3.957-3.166,6.749-3.785,3.015-.662,5.684-2.749,8.116-4.814a29.044,29.044,0,0,1,3.828-2.993,25.97,25.97,0,0,0,5.886-4.792c1.993-2.173,4.037-4.353,7.231-4.807a2.524,2.524,0,0,0,1.36-1.1c1.54-2.13,4.166-2.893,5.893-4.828a4.327,4.327,0,0,1,3.065-1.317,3.877,3.877,0,0,0,4.145-2.785c.554-1.5,1.835-1.677,2.885-2.461a64.062,64.062,0,0,1-16.773-10.959c-3.835-3.31-6.872-7.174-10.038-11.016a12.532,12.532,0,0,1-1.5-2.641,38.213,38.213,0,0,0-4.022-7.088c-3.094-3.958-3.993-8.822-5.476-13.412-1.266-3.936-1.993-8.044-3.6-11.887a2.439,2.439,0,0,1-.122-1.324c.64-3.655-.971-7.08-1.122-10.685-.079-2.108-1.482-4.663-.576-6.462a11.151,11.151,0,0,0,.525-7.944c-.669-2.576-.3-5.051-.727-7.512-.381-2.187,1.122-3.965.986-6.08-.13-2.144-.029-4.3-.022-6.462a1.666,1.666,0,0,1,.166-.849c2.094-3.051,1.525-6.526,1.72-9.915.108-1.871-.6-3.742.748-5.7.986-1.425-.741-3.9,1.051-5.526-.6-3.346,1.4-6.433.928-9.771a7.442,7.442,0,0,1,1.417-5.382A167,167,0,0,1,71.954,8.931c5.943,2.662,12.254,4.713,17.672,8.663,2.713,1.979,6.152,2.986,8.973,4.979.23.158.626.151.763.353,2.641,3.828,7.037,5.3,10.707,7.67,1.835,1.187,2.986,3.36,5.339,3.734,3.288,3.562,7.476,6.123,10.743,9.757,7.253,8.059,12.815,17.19,17.578,26.861.475,4.029,2.2,7.728,3.008,11.707,1.043,5.13.3,10.21.914,15.859,1.7-1.7,3.13-3.123,4.555-4.555a57.947,57.947,0,0,1,12.167-9.6,16.319,16.319,0,0,0,2.346-2.137c2.533-2.259,4.389-5.368,8.03-6.246.511-.122.892-.813,1.317-1.259,4.2-4.476,9.505-7.037,15.276-8.771.41-.122.885.1,1.245-.36,3.6-4.562,9.282-5.008,14.182-6.929,1.259-.5,2.576-1.554,4.195-1.036,1.561.5,2.821-.583,4.224-.921,4.512-1.072,9.117-1.669,13.657-2.554,3.029-.583,6.62-1.238,9.743.691.338.209.907.036,1.367.029,5.2-.115,10.268.381,15,2.763,3.037-.439,5.073,2.216,7.642,2.6,2.756.417,4.763,2.022,7.167,2.828,2.907.971,4.656,3.094,6.721,5.022a2.6,2.6,0,0,1-2.238,1.59c-5.209,1.122-10.5,2.051-15.5,3.8-2.41.842-4.965,1.108-7.375,2.238a71.368,71.368,0,0,1-7.318,2.389c-2.389.806-4.878,1.518-7.231,2.547-3.511,1.533-7.246,2.554-10.757,4.087-6.512,2.849-13.024,5.72-19.363,8.93a176.924,176.924,0,0,0-21.536,12.585,170.946,170.946,0,0,0-16.2,12.268c-2.223,1.986-4.5,3.936-6.713,5.958a2.311,2.311,0,0,0-.64,3.137c1.23.554,1.727-.446,2.267-1.072,4.339-5.073,9.887-8.778,15-12.923a119.907,119.907,0,0,1,16.283-10.707c7.433-4.224,14.988-8.3,22.788-11.793,5.555-2.475,11.239-4.763,16.988-6.872,6.426-2.353,12.894-4.526,19.406-6.591,3.95-1.252,7.973-2.288,11.959-3.411,3.31-.935,6.749-1.338,9.944-2.72.777-.338,1.82-.05,2.813-.05,1.166,2.3-.324,4.3-.928,6.26-1.547,5.022-3.4,9.958-5.209,14.9-.439,1.194-1.288,2.231-1.806,3.4-1.374,3.116-2.475,6.375-4.044,9.39a169.925,169.925,0,0,1-11.39,18.8c-2.648,3.778-5.281,7.584-8.786,10.671-1.792,1.59-2.626,3.958-4.548,5.512-5.943,4.785-11.628,9.915-18.341,13.664-.489.273-1.043.439-2.043.849,3.929,1.166,7.454,2.31,11.038,3.245,5.692,1.5,11.441,2.756,17.1,4.368,2.9.828,5.907,1.3,8.807,2.137,4.828,1.418,9.822,2.151,14.621,3.662,3.893,1.23,4.943,2.569,4.943,6.634q.011,58.348.007,116.7c0,2.612-.583,4.461-3.238,6.073-3.893,2.367-7.116,5.814-10.757,8.635-4.432,3.439-9.045,6.656-13.182,10.462-2.669.489-3.634,3.288-6.03,4.36-2.094.935-3.706,2.936-5.548,4.44-1.72,1.4-3.274,3.3-5.253,4.015-2.274.813-2.756,3.742-5.339,3.828-2.777,3.159-6.447,5.209-9.678,7.814-4.735,3.828-9.282,7.951-14.319,11.326-2.209,1.475-4.109,3.3-6.217,4.85-5.454,3.986-10.592,8.419-16.154,12.3a51.127,51.127,0,0,0-5.094,4.3A9.806,9.806,0,0,1,169.186,376.762Zm96.3-87.885c.461-3.137-.64-6.2.95-9.066a3.12,3.12,0,0,0-.007-2.691c-1.374-2.116-.907-4.4-.813-6.577.4-9.851-1.007-19.744.8-29.58a10.743,10.743,0,0,0-.842-7.44c.468-4.166-.964-8.447.878-12.542a3.961,3.961,0,0,0,.022-2.281c-1.223-5.62-1.23-7.131,0-13.067.122-.583.237-1.489-.072-1.777-1.382-1.274-.763-2.857-.8-4.288-.094-3.634-.029-7.267-.029-11.333l-87.446,71.58V357.73a18.075,18.075,0,0,1,5.9-4.231,17,17,0,0,0,6.764-4.778,17.529,17.529,0,0,1,5.267-4.037,32.382,32.382,0,0,0,7.289-5.72c3.634-3.634,7.181-7.375,11.354-10.419,1.173-.856,2.324-2.151,3.612-2.324a4.534,4.534,0,0,0,3.922-3.08,2.882,2.882,0,0,1,1.108-1.36,35.07,35.07,0,0,0,8.016-6.217,2.693,2.693,0,0,1,1.158-.568c3.814-1.36,5.152-2.4,7.757-5.555a13.23,13.23,0,0,1,4.922-3.677c1.633-.72,3.188-1.353,4.2-3.353.827-1.648,2.828-2.921,4.512-4.195,1.583-1.194,3.447-1.482,4.986-2.655C261.5,293.575,262.957,290.582,265.482,288.877ZM143.217,153.732c-3.461,2.842-5.339,6.987-7.339,11.016a23.434,23.434,0,0,0-2.087,9.232c-.3,6.109-.914,12.347,1.194,18.348,3.252,0,6.483.094,9.707-.029,3.159-.122,6.095,1.619,9.3.957,3.49-.712,6.749,1.4,10.225.914,1.453,1.511,3.511.4,5.073,1.122,3.533,1.626,7.354,2.281,11,3.511,5.663,1.907,11.5,3.483,16.866,6.03,5.612,2.662,11.146,5.735,15.262,10.462,3.655-3,7.116-6.03,10.786-8.836,4.26-3.267,8.1-7.08,12.376-10.318,2.166-1.648,3.922-3.814,6.167-5.166,1.972-1.187,3.152-3.274,5.188-4.116,1.979-.82,2.8-3.037,4.994-3.555,2.317-.547,2.655-3.3,4.476-4.526.525-.36,1.619.252,1.626-1.4-1.5,1.367-1.547-.676-2.734-.791-6.778-.669-13.081-3.382-19.723-4.763a141.225,141.225,0,0,1-13.729-3.526c-4.245-1.346-8.606-2.231-12.894-3.331-3.907-1.007-7.807-2.526-12.052-2.231-1.943.129-3.54,1.31-5.62,1.065-4.605-.554-9.3.547-13.938-.892-2.18-.684-4.627-.374-7-.849-4.116-.82-8.181-1.784-12.189-2.972A114.989,114.989,0,0,1,143.217,153.732Zm-41.352-6.706c-.827,1.288-2.418,1.806-3.648,2.806-4.634,3.778-9.829,6.742-14.693,10.189-3.9,2.763-8.109,5.123-11.829,8.1-4.684,3.749-9.951,6.627-14.664,10.318-2.943,2.317-6.433,3.943-9.34,6.3-4.663,3.778-9.937,6.641-14.664,10.318-3.2,2.482-6.721,4.548-10.448,7.037,4.807,1.453,8.958,3.778,13.75,4.094a240.83,240.83,0,0,0,23.86,8.052c3.3.971,6.346,2.547,9.685,3.353a37.681,37.681,0,0,0,5.843,1.4c1.36.108,1.252-1.849,2.087-2.518.482-.389,1.3-.489,1.864-1.029.273-.259,1.079-.13,1.18-.367,1.425-3.382,4.634-5.138,6.915-7.728a13.621,13.621,0,0,1,6.965-4.317,10.366,10.366,0,0,0,4.548-2.461,12.44,12.44,0,0,1,5.6-3.108c2.245-.525,4.332-1.727,6.764-1.446a3.444,3.444,0,0,0,2.029-.684,8.193,8.193,0,0,1,4.584-1.23c1.655.137,2.36-.784,2.468-2.41a14.294,14.294,0,0,0,0-1.842c-.223-4.029.691-8.145-.914-12.067.453-5.4-1.022-10.9.921-16.219-.64-4.159,1.626-7.721,2.533-11.952-3.814,1.259-7.152-1.036-10.8-.691C108.91,149.256,105.513,148.177,101.865,147.026Z" transform="translate(-1.611 -1.354)" fill="#8cb808"/>
        </g>
      </g>
      <g id="Group_155" data-name="Group 155" transform="translate(11.339 391.448)">
        <path id="Path_21" data-name="Path 21" d="M2.963,144.827V55.568H29.932l16.2,60.888L62.146,55.568H89.179v89.259H72.435V74.564L54.72,144.827H37.364L19.707,74.564v70.264Z" transform="translate(-2.963 -55.568)" fill="#8cb808"/>
        <path id="Path_22" data-name="Path 22" d="M59.161,104.33l17.053,2.857q-3.281,9.379-10.383,14.283t-17.751,4.9q-16.859,0-24.961-11.016-6.39-8.829-6.4-22.291,0-16.071,8.4-25.177a27.686,27.686,0,0,1,21.248-9.1q14.441,0,22.774,9.527t7.98,29.2H34.264q.183,7.609,4.137,11.844a12.959,12.959,0,0,0,9.865,4.231,10.442,10.442,0,0,0,6.757-2.195Q57.765,109.2,59.161,104.33Zm.979-17.3q-.183-7.426-3.835-11.29a12.344,12.344,0,0,0-18.147.209q-3.648,4.08-3.591,11.081Z" transform="translate(82.28 -35.65)" fill="#767676"/>
        <path id="Path_23" data-name="Path 23" d="M27.054,144.827V55.568H44.165v89.259Z" transform="translate(146.291 -55.568)" fill="#767676"/>
        <path id="Path_24" data-name="Path 24" d="M48.534,79.974l-15.521-2.8q2.612-9.379,9.009-13.887t19-4.5q11.452,0,17.053,2.713t7.879,6.879q2.288,4.166,2.288,15.312l-.18,19.975a68.758,68.758,0,0,0,.82,12.57,36.49,36.49,0,0,0,3.072,8.678H75.02q-.669-1.705-1.641-5.051-.432-1.522-.6-2.008a30.948,30.948,0,0,1-9.383,6.39,26.891,26.891,0,0,1-10.656,2.13q-9.984,0-15.736-5.418a18.009,18.009,0,0,1-5.756-13.7,18.424,18.424,0,0,1,2.619-9.771A17.148,17.148,0,0,1,41.2,90.9,57.431,57.431,0,0,1,54.808,86.91Q66.8,84.665,71.43,82.715V81.01q0-4.933-2.439-7.03T59.8,71.872a12.267,12.267,0,0,0-7.124,1.8C50.973,74.872,49.591,76.966,48.534,79.974Zm22.9,13.88a105.538,105.538,0,0,1-10.412,2.619q-7.123,1.522-9.311,2.986a7.127,7.127,0,0,0-3.353,6.03,8.4,8.4,0,0,0,2.677,6.21,9.38,9.38,0,0,0,6.821,2.619,14.859,14.859,0,0,0,8.829-3.044,10.711,10.711,0,0,0,4.08-5.67,33.782,33.782,0,0,0,.669-8.34Z" transform="translate(172.244 -35.65)" fill="#767676"/>
      </g>
      <text id="You_are_what_you_Eat" data-name="You are what you Eat" transform="translate(22.493 513.354)" fill="#474645" font-size="25" font-family="SegoeUI, Segoe UI"><tspan x="0" y="0">You are what you Eat</tspan></text>
    </g>
  </g>
</svg>
